# xmcd CD database file
# Copyright (C) 1996 Ti Kan
#
# Track frame offsets:
#	157
#	14490
#	28890
#	38107
#	59497
#	75777
# Disc length: 1171 seconds
#
# Revision: 1
# Processed by: cddbd v1.4PL0 Copyright (c) Steve Scherf et al.
# Submitted via: CDCOPY 4.744
#
DISCID=41049106
DTITLE=Sirrah - Yeyo Dance EP
DYEAR=1900
DGENRE=
TTITLE0=Feel it
TTITLE1=Yeyo Dance
TTITLE2=It's magical belief
TTITLE3=Wudu
TTITLE4=African People
TTITLE5=Kule Kule
EXTD=
EXTT0=
EXTT1=
EXTT2=
EXTT3=
EXTT4=
EXTT5=
PLAYORDER=
